<?xml version="1.0" encoding="UTF-8" standalone="no"?> <svg xmlns="http://www.w3.org/2000/svg" width="512" height="456.03" viewBox="0 0 512 456.03">
  <g id="Layer_x0020_1" transform="translate(2.774 -27.986)">
    <path id="Path_361" data-name="Path 361" d="M154.8,56.078c0-.024,0-.047,0-.071C154.8,56.03,154.8,56.054,154.8,56.078Zm103.961,5.4a7.616,7.616,0,0,0,2.233-5.3A7.43,7.43,0,0,1,258.765,61.475ZM151.33,59.55a3.467,3.467,0,0,0,3.472-3.4,5.055,5.055,0,0,0,5.052,4.981h18.32q.882-3.008,1.618-6.176l-.008-.013a5.051,5.051,0,0,1,9.906.319q.7,3.008,1.547,5.87H240.68a5.052,5.052,0,1,0,0-10.1H159.854a5.055,5.055,0,0,0-5.052,4.981,3.474,3.474,0,1,0-3.472,3.543Z" fill="#fff" fill-rule="evenodd"/>
    <path id="Path_362" data-name="Path 362" d="M261,56.078v-.086C261,56.02,261,56.049,261,56.078Zm95.318,0v-.071A.7.7,0,0,0,356.316,56.078ZM253.365,48.444h-.086C253.307,48.445,253.336,48.445,253.365,48.444Zm-5.4,13.031A7.633,7.633,0,0,0,261,56.163v.015a5.052,5.052,0,0,0,5.05,4.951h47.163q.882-3.008,1.618-6.176c-.751-1.074,2.936-4.514,6.048-3.8a5.051,5.051,0,0,1,3.849,4.1q.7,3.008,1.547,5.87h24.99a5.053,5.053,0,0,0,5.052-4.981v.013a3.479,3.479,0,1,0,0-.168v.013a5.053,5.053,0,0,0-5.052-4.981H266.048a5.053,5.053,0,0,0-5.05,4.95v.015a7.61,7.61,0,0,0-7.547-7.547h.015a5.052,5.052,0,0,0,4.95-5.05V33.037a5.051,5.051,0,0,0-10.1,0V43.394a5.052,5.052,0,0,0,4.949,5.05h.015a7.635,7.635,0,0,0-5.313,13.031Z" fill="#fff" fill-rule="evenodd"/>
    <path id="Path_363" data-name="Path 363" d="M63.422,224.242a5.038,5.038,0,0,0,9.035-4.46C67.979,210.731,41.124,153.8,37.911,150.5c-3.983-4.8-49.129-57.692-39.285,23.53l0,.015c.015.131.037.261.061.389L12.843,270.52c-1.05,7.271-5.805,57.534,56.708,94.25l-.011.017a5.009,5.009,0,0,0,.754.363c3.685,1.61,60.352,27.03,83.608,77.105v36.709a5.051,5.051,0,0,0,10.1,0V441.211a5.019,5.019,0,0,0-.45-2.139l-.008,0c-24.521-54.141-85.167-81.405-89.239-83.186C16.52,321.762,22.073,276.5,22.822,271.8a5,5,0,0,0,.115-2.029h-.006L8.663,172.951l-.018-.123,0-.024c-5.649-46.716,18.177-19.837,21.388-16.037l33.392,67.474Z" fill="#4d7902"/>
    <path id="Path_364" data-name="Path 364" d="M102.157,334.548A5.041,5.041,0,1,0,105.393,325c-.09-.03-31.148-10.38-47.789-64.8-.628-3.982-6.445-45.378,27.7-28.084,3.428,9.867,20.851,52.651,70.04,68.736l0,.008a5.208,5.208,0,0,0,.552.146c4.857,1.481,54.516,17.9,61.309,71.566-.737,4.819-1.9,24.653,23.15,47.772a5.04,5.04,0,1,0,6.826-7.417c-23.193-21.409-20.334-37.381-20-38.873a5.053,5.053,0,0,0,.15-1.952h0c-7.191-60.584-63.1-79.076-68.575-80.749l-.265-.1,0,.014-.008,0,0-.006C109.95,275.4,95.51,231.13,94.381,227.43a5.039,5.039,0,0,0-2.5-3.253l-.009.017c-53.882-29.278-45.063,32.3-44.222,37.56a5.072,5.072,0,0,0,.2,1.025l.019-.006c18.129,59.714,54.183,71.74,54.287,71.775Z" fill="#4d7902"/>
    <path id="Path_365" data-name="Path 365" d="M253.365,38.342a17.667,17.667,0,0,1,12.522,5.194h.019c.107.107.209.22.3.334a17.736,17.736,0,1,1-25.386-.313v-.02c.106-.106.219-.209.333-.3a17.658,17.658,0,0,1,12.208-4.89Zm0,10.1A7.635,7.635,0,1,0,261,56.078a7.61,7.61,0,0,0-7.633-7.633Z" fill="#4d7902"/>
    <path id="Path_366" data-name="Path 366" d="M151.33,42.5a13.578,13.578,0,1,1-9.6,3.977,13.541,13.541,0,0,1,9.6-3.977Zm2.458,11.118a3.479,3.479,0,1,0,1.016,2.457A3.467,3.467,0,0,0,153.788,53.621Z" fill="#4d7902"/>
    <path id="Path_367" data-name="Path 367" d="M359.789,42.5a13.578,13.578,0,1,1-9.6,3.977,13.536,13.536,0,0,1,9.6-3.977Zm2.457,11.118a3.479,3.479,0,1,0,1.016,2.457A3.468,3.468,0,0,0,362.246,53.621Z" fill="#4d7902"/>
    <path id="Path_368" data-name="Path 368" d="M266.049,51.026a5.052,5.052,0,0,0,0,10.1h85.216a5.052,5.052,0,0,0,0-10.1H266.049Z" fill="#4d7902"/>
    <path id="Path_369" data-name="Path 369" d="M324.727,55.259c4.859,20.763,14.914,36.251,23.268,49.118,8.047,12.4,14.649,22.563,14.649,33.619,0,12.373-3.227,24.845-11.446,33.74-6.891,7.456-17.07,12.274-31.456,12.274s-24.565-4.818-31.455-12.274c-8.219-8.895-11.446-21.366-11.446-33.74,0-11.055,6.6-21.223,14.648-33.618,8.4-12.932,18.509-28.508,23.341-49.425-.751-1.074,2.936-4.514,6.048-3.8a5.051,5.051,0,0,1,3.849,4.1Zm14.824,54.6c-6.6-10.161-14.2-21.873-19.81-36.569-5.608,14.694-13.211,26.407-19.81,36.571-7.135,10.991-12.99,20.009-12.99,28.133,0,10.1,2.471,20.1,8.763,26.913,5.05,5.467,12.791,9,24.037,9s18.987-3.532,24.038-9c6.292-6.809,8.763-16.812,8.763-26.913,0-8.125-5.855-17.141-12.991-28.134Z" fill="#4d7902"/>
    <path id="Path_370" data-name="Path 370" d="M281.892,132.944a5.051,5.051,0,0,0,0,10.1h75.7a5.051,5.051,0,0,0,0-10.1Z" fill="#4d7902"/>
    <path id="Path_371" data-name="Path 371" d="M159.854,51.026a5.052,5.052,0,0,0,0,10.1h80.825a5.052,5.052,0,0,0,0-10.1Z" fill="#4d7902"/>
    <path id="Path_372" data-name="Path 372" d="M258.417,33.037a5.051,5.051,0,0,0-10.1,0V43.394a5.051,5.051,0,1,0,10.1,0V33.037Zm0,35.726a5.051,5.051,0,1,0-10.1,0v147.5a5.051,5.051,0,1,0,10.1,0Z" fill="#4d7902"/>
    <path id="Path_373" data-name="Path 373" d="M171.628,211.209H336.2a27.611,27.611,0,0,1,27.543,27.543v22.491a5.052,5.052,0,0,1-5.05,5.052H149.138a5.052,5.052,0,0,1-5.052-5.052V238.752a27.611,27.611,0,0,1,27.542-27.543Zm164.571,10.1H171.628a17.5,17.5,0,0,0-17.44,17.441v17.44H353.64v-17.44A17.5,17.5,0,0,0,336.2,221.311Z" fill="#4d7902"/>
    <path id="Path_374" data-name="Path 374" d="M189.69,55.259c4.859,20.763,14.915,36.251,23.268,49.118,8.048,12.4,14.649,22.563,14.649,33.619,0,12.373-3.227,24.845-11.446,33.74-6.891,7.456-17.07,12.274-31.456,12.274s-24.565-4.818-31.455-12.274C145.03,162.84,141.8,150.369,141.8,138c0-11.055,6.6-21.223,14.648-33.618,8.4-12.932,18.509-28.508,23.341-49.425l-.008-.013a5.051,5.051,0,0,1,9.906.319Zm14.824,54.6c-6.6-10.161-14.2-21.873-19.809-36.569C179.1,87.986,171.494,99.7,164.9,109.863c-7.135,10.991-12.99,20.009-12.99,28.133,0,10.1,2.471,20.1,8.763,26.913,5.05,5.467,12.793,9,24.037,9s18.988-3.532,24.039-9c6.292-6.809,8.761-16.812,8.761-26.913,0-8.125-5.855-17.141-12.991-28.134Z" fill="#4d7902"/>
    <path id="Path_375" data-name="Path 375" d="M146.856,132.944a5.051,5.051,0,1,0,0,10.1h75.7a5.051,5.051,0,0,0,0-10.1Z" fill="#4d7902"/>
    <path id="Path_376" data-name="Path 376" d="M443.03,224.244a5.038,5.038,0,0,1-9.035-4.46c4.479-9.051,31.334-65.984,34.545-69.285,3.984-4.8,49.13-57.692,39.286,23.53l0,.015c-.015.131-.037.261-.061.389l-14.159,96.089c1.05,7.271,5.805,57.534-56.708,94.25l.011.017a5.009,5.009,0,0,1-.754.363c-3.685,1.61-60.352,27.03-83.608,77.105v36.709a5.051,5.051,0,1,1-10.1,0V441.213a5.019,5.019,0,0,1,.45-2.139l.008,0c24.521-54.141,85.167-81.405,89.238-83.186,57.788-34.127,52.234-79.384,51.486-84.087a5,5,0,0,1-.115-2.029h.006l14.268-96.824.018-.123,0-.024c5.649-46.716-18.177-19.837-21.388-16.037L443.03,224.244Z" fill="#4d7902"/>
    <path id="Path_377" data-name="Path 377" d="M404.3,334.549A5.041,5.041,0,0,1,401.059,325c.09-.03,31.148-10.378,47.789-64.8.628-3.982,6.445-45.378-27.7-28.084-3.428,9.867-20.851,52.651-70.04,68.736l0,.008a5.207,5.207,0,0,1-.552.146c-4.857,1.481-54.516,17.9-61.309,71.566.737,4.819,1.9,24.653-23.15,47.772a5.04,5.04,0,1,1-6.826-7.417c23.193-21.409,20.334-37.381,20-38.873a5.053,5.053,0,0,1-.15-1.952h0c7.191-60.584,63.1-79.076,68.575-80.749l.265-.1,0,.014.008,0,0-.006c48.519-15.862,62.959-60.13,64.088-63.829a5.038,5.038,0,0,1,2.5-3.254l.009.017c53.882-29.278,45.063,32.3,44.222,37.56a5.071,5.071,0,0,1-.2,1.025l-.019-.006c-18.129,59.714-54.183,71.74-54.287,71.775Z" fill="#4d7902"/>
    <path id="Path_378" data-name="Path 378" d="M287.624,132.944h64.237c-1.741-6.8-6.618-14.315-12.31-23.082-6.6-10.161-14.2-21.873-19.81-36.569-5.608,14.694-13.211,26.407-19.81,36.571-5.691,8.766-10.567,16.278-12.308,23.081Z" fill="#fff" fill-rule="evenodd"/>
    <path id="Path_379" data-name="Path 379" d="M352.329,143.046H287.157c.72,8.31,3.311,16.193,8.549,21.862,5.05,5.467,12.791,9,24.037,9s18.987-3.532,24.038-9c5.238-5.669,7.828-13.552,8.549-21.862Z" fill="#73b504" fill-rule="evenodd"/>
    <path id="Path_380" data-name="Path 380" d="M208.744,164.908c5.238-5.669,7.827-13.552,8.548-21.862H152.119c.72,8.31,3.311,16.193,8.549,21.862,5.05,5.467,12.793,9,24.037,9s18.988-3.532,24.039-9Z" fill="#73b504" fill-rule="evenodd"/>
    <path id="Path_381" data-name="Path 381" d="M152.587,132.944h64.237c-1.741-6.8-6.618-14.315-12.309-23.082-6.6-10.161-14.2-21.873-19.809-36.569C179.1,87.986,171.494,99.7,164.9,109.863c-5.691,8.766-10.567,16.278-12.308,23.081Z" fill="#fff" fill-rule="evenodd"/>
    <path id="Path_382" data-name="Path 382" d="M253.255,221.311H171.628a17.5,17.5,0,0,0-17.44,17.441v17.44H353.639v-17.44A17.5,17.5,0,0,0,336.2,221.311H253.255Z" fill="#73b504" fill-rule="evenodd"/>
  </g>
</svg>
