<?xml version="1.0" encoding="UTF-8"?>
<!DOCTYPE svg PUBLIC "-//W3C//DTD SVG 1.1//EN" "http://www.w3.org/Graphics/SVG/1.1/DTD/svg11.dtd">
<!-- Creator: CorelDRAW -->
<svg xmlns="http://www.w3.org/2000/svg" xml:space="preserve" width="1.70666in" height="1.70666in" version="1.1" style="shape-rendering:geometricPrecision; text-rendering:geometricPrecision; image-rendering:optimizeQuality; fill-rule:evenodd; clip-rule:evenodd"
viewBox="0 0 1706.66 1706.66"
 xmlns:xlink="http://www.w3.org/1999/xlink"
 xmlns:xodm="http://www.corel.com/coreldraw/odm/2003">
 <defs>
  <style type="text/css">
   <![CDATA[
    .fil0 {fill:url(#id0)}
   ]]>
  </style>
  <linearGradient id="id0" gradientUnits="userSpaceOnUse" x1="7.76" y1="853.33" x2="1699.02" y2="853.33">
   <stop offset="0" style="stop-opacity:1; stop-color:#FFB800"/>
   <stop offset="1" style="stop-opacity:1; stop-color:#FF5329"/>
  </linearGradient>
 </defs>
 <g id="Layer_x0020_1">
  <metadata id="CorelCorpID_0Corel-Layer"/>
  <path class="fil0" d="M624.84 1011.8c-26.39,0 -51.25,-10.28 -69.86,-28.89l-253.89 -253.89c-38.54,-38.54 -38.54,-101.19 0,-139.72l50.83 -50.83c38.47,-38.47 101.25,-38.47 139.72,0l6.6 6.6 139.93 -183.12 179.03 -135.97 -6.53 -6.53c-38.47,-38.47 -38.47,-101.25 0,-139.72 40.12,-40.12 67.74,-79.72 120.69,-79.72 26.39,0 51.25,10.28 69.86,28.89l253.89 253.89c38.47,38.47 38.47,101.25 0,139.72 -40.19,40.19 -67.7,79.72 -120.56,79.72 -32.77,0 -53.97,-13.01 -75.64,-34.67l-32.25 41.77 99.01 99.14c16.15,16.17 -3.11,31.44 -11.81,40.15l545.13 545.13c85.85,85.85 24.31,233.06 -96.53,233.06 -35,0 -69.86,-13.33 -96.53,-39.86l-545.07 -545.21c-7.97,7.97 -23.85,28.11 -40.2,11.74l-98.84 -98.96 -41.95 32.2 5.66 5.66c38.47,38.47 38.47,101.24 0,139.72 -40.38,40.38 -67.67,79.73 -120.7,79.73zm-540 430.28l0 -160.56c0,-88.75 72.22,-160.97 160.97,-160.97l299.44 0c88.75,0 160.97,72.22 160.97,160.97l0 160.56 57.08 0c11.11,0 20,9.03 20,20l0 224.58c0,10.97 -9.03,20 -20,20l-735.56 0c-11.11,0 -20,-9.03 -20,-20l0 -224.58c0,-10.97 8.89,-20 20,-20l57.08 0zm581.39 0l0 -160.56c0,-66.67 -54.31,-120.97 -120.97,-120.97l-299.44 0c-66.67,0 -120.97,54.31 -120.97,120.97l0 160.56 541.39 0zm-618.47 224.58l695.56 0 0 -184.58 -695.56 0 0 184.58zm1037.79 -989.7l-136.42 136.5 545.01 545.01c60.3,60.3 164.58,17.93 164.58,-68.19 0,-25.83 -10,-50.14 -28.19,-68.19l-544.98 -545.12zm-180.21 123.65l177.98 -177.98 -81.33 -81.33 -84.48 109.07 -103.6 79.52 81.08 81.08 10.36 -10.36zm-29.58 -168.72l-223.57 -223.56 -125.48 165.2 184.6 184.6 164.44 -126.24zm-195.23 -251.9l223.56 223.57 126.3 -164.52 -184.64 -184.55 -165.22 125.5zm179.3 -168.06l233.07 233.07c22.84,22.84 60.42,22.77 83.19,0l50.83 -50.83c22.92,-22.92 22.92,-60.28 0,-83.19l-253.89 -253.89c-22.87,-22.72 -60.33,-22.86 -83.19,0l-50.83 50.83c-22.92,22.92 -22.92,60.28 0,83.19l20.82 20.82zm-438.18 337.65c-15,0 -30.14,5.69 -41.53,17.22l-50.83 50.83c-22.87,22.87 -22.74,60.31 0,83.06l253.89 254.02c22.86,22.87 60.32,22.73 83.06,0l50.83 -50.83c22.92,-22.92 22.92,-60.28 0,-83.19l-253.75 -253.89c-11.53,-11.39 -26.53,-17.22 -41.67,-17.22zm-106.53 53.89l0 0z"/>
 </g>
</svg>
